<?xml version="1.0" encoding="utf-8"?>
<!-- Generator: Adobe Illustrator 23.0.2, SVG Export Plug-In . SVG Version: 6.00 Build 0)  -->
<svg version="1.1" id="Camada_1" xmlns="http://www.w3.org/2000/svg" xmlns:xlink="http://www.w3.org/1999/xlink" x="0px" y="0px"
	 viewBox="0 0 151.9 50.1" style="enable-background:new 0 0 151.9 50.1;" xml:space="preserve">
<style type="text/css">
	.st0{clip-path:url(#SVGID_2_);fill:url(#SVGID_3_);}
	.st1{fill:url(#SVGID_4_);}
	.st2{clip-path:url(#SVGID_8_);fill:#F0951D;}
	.st3{fill:#F0951D;}
	.st4{fill:#15729A;}
	.st5{fill:#216A8D;}
</style>
<g>
	<g>
		<defs>
			<path id="SVGID_1_" d="M27.1,13.2c-3.2,1.8-6.3,3.7-9.7,5.2c-4.9,2.1-9.5,1.8-13.9-1.2C3.4,17.1,3.3,17,3.1,17
				c0.4,1,0.8,1.9,1.4,2.7c2.6,3.3,6.1,4.1,10.1,3.6c5.3-0.6,10-2.9,14.5-5.5c3-1.7,5.9-1.8,8.7,0.3c2.9,2.1,3.6,5.1,2.8,8.5
				c-0.6,2.6-2.1,4.8-3.8,6.9c-3.6,4.3-7.9,7.6-12.8,10.2c-0.6,0.3-1.1,0.4-1.8,0C16.3,40.7,10.6,37.1,6,31.9
				c-2.4-2.7-4.3-5.7-4.7-9.4c-0.1-0.7-0.1-1.3-0.1-2c-1.1,3.7-0.6,7.2,1,10.6c2.4,5.2,6.3,9.2,10.8,12.6c2.9,2.2,6.1,4.2,9.5,5.7
				c0.6,0.3,1.1,0.3,1.7,0c5.1-2.3,9.6-5.4,13.7-9.3c3.4-3.2,6.1-6.9,7.6-11.5c2-6.5-0.9-13.3-7-16c-1.7-0.7-3.4-1.1-5-1.1
				C31.2,11.5,29.1,12.1,27.1,13.2"/>
		</defs>
		<clipPath id="SVGID_2_">
			<use xlink:href="#SVGID_1_"  style="overflow:visible;"/>
		</clipPath>
		
			<linearGradient id="SVGID_3_" gradientUnits="userSpaceOnUse" x1="-335.2171" y1="321.9226" x2="-335.0308" y2="321.9226" gradientTransform="matrix(-244 0 0 -224.678 -81746.9922 72359.5391)">
			<stop  offset="0" style="stop-color:#32B1C6"/>
			<stop  offset="0.8166" style="stop-color:#28469D"/>
			<stop  offset="1" style="stop-color:#28469D"/>
		</linearGradient>
		<rect x="0" y="11.5" class="st0" width="47.4" height="38.2"/>
	</g>
	<linearGradient id="SVGID_4_" gradientUnits="userSpaceOnUse" x1="28.2819" y1="5.7198" x2="38.6023" y2="5.7198">
		<stop  offset="0" style="stop-color:#32B1C6"/>
		<stop  offset="0.8166" style="stop-color:#28469D"/>
		<stop  offset="1" style="stop-color:#28469D"/>
	</linearGradient>
	<path class="st1" d="M33.3,0.5c-3,0-5.1,2.2-5.1,5.1c0,2.5,1.7,5.3,5.2,5.3c3-0.1,5.1-2.6,5.1-5.3C38.6,2.8,36.3,0.2,33.3,0.5"/>
	<g>
		<g>
			<defs>
				<path id="SVGID_5_" d="M7.9,5.7c0,2.9,2.2,5.2,5.1,5.2c2.8,0,5.1-2.3,5.1-5.2c0-2.9-2.3-5.2-5.2-5.2c0,0,0,0,0,0
					C10.1,0.5,7.9,2.8,7.9,5.7"/>
			</defs>
			<clipPath id="SVGID_6_">
				<use xlink:href="#SVGID_5_"  style="overflow:visible;"/>
			</clipPath>
		</g>
		<g>
			<defs>
				<path id="SVGID_7_" d="M7.9,5.7c0,2.9,2.2,5.2,5.1,5.2c2.8,0,5.1-2.3,5.1-5.2c0-2.9-2.3-5.2-5.2-5.2c0,0,0,0,0,0
					C10.1,0.5,7.9,2.8,7.9,5.7"/>
			</defs>
			<use xlink:href="#SVGID_7_"  style="overflow:visible;fill:#F0951D;"/>
			<clipPath id="SVGID_8_">
				<use xlink:href="#SVGID_7_"  style="overflow:visible;"/>
			</clipPath>
			<rect x="7.9" y="0.5" class="st2" width="10.2" height="10.4"/>
		</g>
		<g>
			<defs>
				<path id="SVGID_9_" d="M7.9,5.7c0,2.9,2.2,5.2,5.1,5.2c2.8,0,5.1-2.3,5.1-5.2c0-2.9-2.3-5.2-5.2-5.2c0,0,0,0,0,0
					C10.1,0.5,7.9,2.8,7.9,5.7"/>
			</defs>
			<clipPath id="SVGID_10_">
				<use xlink:href="#SVGID_9_"  style="overflow:visible;"/>
			</clipPath>
		</g>
	</g>
	<path class="st3" d="M29.3,19.6c1.6,0,3.1,0,4.4,0.8c2,1.3,2.9,3.1,2.9,5.5c-0.1,2.7-1.3,4.9-2.8,6.9c-2.3,3.1-5.1,5.7-8.3,7.9
		c-0.8,0.5-1.5,1.1-2.2,1.7c1.4-0.5,2.7-1.2,3.9-2c3-2,5.7-4.3,8.1-7c1.6-1.8,3.1-3.8,3.8-6.2c1.2-3.9,0-7.2-3.6-8.9
		C33.7,17.5,30.7,18.1,29.3,19.6"/>
	<path class="st3" d="M13,11.6c-3.6-0.1-6.6,1.2-9.1,3.8c-0.4,0.5-0.6,0.8,0.1,1.2c1.1,0.7,2.2,1.5,3.5,1.7c0.6,0.1,1-0.1,1.4-0.5
		c2.5-2.6,5.4-3.9,8.9-3.3c1,0.1,1.9,0.4,2.8,0.6c0.2,0,0.6,0.1,0.7-0.1c0.1-0.3-0.2-0.4-0.4-0.6C18.7,12.4,16,11.5,13,11.6"/>
	<path class="st3" d="M24.8,21.8c-1.6,0.6-3.2,1.2-4.8,1.7c-1.7,0.6-3.4,0.9-5.2,1c-1.6,0.1-3.1,0.3-4.7,0C7,24,4.6,22.5,3,19.8
		c-0.1-0.2-0.3-0.5-0.5-0.5c-0.3,0-0.3,0.4-0.3,0.6c-0.4,1.7,0.8,5,2.3,6.2c2.3,1.8,4.9,1.7,7.5,1.3c1-0.1,1.9-0.3,2.8-0.5
		c0.7-0.2,1.4-0.5,2.1-0.8C19.7,25.1,22.4,23.8,24.8,21.8"/>
	<g>
		<g>
			<path class="st4" d="M54.4,17.5l-0.7,0.8c-0.3-0.4-0.8-0.6-1.2-0.6c-0.7,0-1.3,0.6-1.3,1.4c0,0.8,0.6,1.4,1.3,1.4
				c0.4,0,0.9-0.2,1.2-0.5l0.7,0.7c-0.5,0.5-1.2,0.9-1.9,0.9c-1.4,0-2.5-1-2.5-2.4c0-1.4,1.1-2.4,2.5-2.4C53.3,16.7,54,17,54.4,17.5
				z"/>
			<path class="st4" d="M58.2,19.1v2.4H57V21c-0.2,0.3-0.6,0.5-1.1,0.5c-0.8,0-1.2-0.5-1.2-1.1c0-0.7,0.5-1.1,1.4-1.1h1v-0.1
				c0-0.4-0.2-0.6-0.7-0.6c-0.3,0-0.7,0.1-1.1,0.3l-0.3-0.8c0.6-0.3,1.1-0.4,1.7-0.4C57.6,17.8,58.2,18.3,58.2,19.1z M57,20.2v-0.3
				h-0.7c-0.3,0-0.5,0.1-0.5,0.4c0,0.3,0.2,0.4,0.5,0.4C56.6,20.7,57,20.5,57,20.2z"/>
			<path class="st4" d="M60.1,18.4c0.2-0.4,0.7-0.7,1.2-0.7v1c-0.7-0.1-1.1,0.3-1.2,0.8v1.9H59v-3.6h1.2V18.4z"/>
			<path class="st4" d="M64.3,21.2c-0.3,0.2-0.6,0.2-1,0.2c-0.7,0-1.2-0.4-1.2-1.1v-1.6h-0.5V18h0.5v-1h1.2v1h0.9v0.8h-0.9v1.4
				c0,0.3,0.1,0.4,0.3,0.4c0.1,0,0.3,0,0.4-0.1L64.3,21.2z"/>
			<path class="st4" d="M68.1,19.1v2.4h-1.1V21c-0.2,0.3-0.6,0.5-1.1,0.5c-0.8,0-1.2-0.5-1.2-1.1c0-0.7,0.5-1.1,1.4-1.1h1v-0.1
				c0-0.4-0.2-0.6-0.7-0.6c-0.3,0-0.7,0.1-1.1,0.3l-0.3-0.8c0.6-0.3,1.1-0.4,1.7-0.4C67.5,17.8,68,18.3,68.1,19.1z M65.9,17.3h-0.7
				c0-0.7,0.2-1,0.7-1c0.4,0,0.6,0.3,0.8,0.3c0.1,0,0.2-0.1,0.2-0.3h0.7c0,0.7-0.2,1-0.7,1c-0.4,0-0.6-0.3-0.8-0.3
				C66,17,65.9,17.1,65.9,17.3z M66.9,20.2v-0.3h-0.7c-0.3,0-0.5,0.1-0.5,0.4c0,0.3,0.2,0.4,0.5,0.4C66.5,20.7,66.8,20.5,66.9,20.2z
				"/>
			<path class="st4" d="M72.6,19.6c0,1.1-0.8,1.8-2,1.8c-1.2,0-2-0.7-2-1.8c0-1.1,0.8-1.8,2-1.8C71.8,17.8,72.6,18.5,72.6,19.6z
				 M69.8,19.6c0,0.6,0.3,0.9,0.8,0.9c0.5,0,0.8-0.4,0.8-0.9c0-0.6-0.3-0.9-0.8-0.9C70.1,18.7,69.8,19.1,69.8,19.6z"/>
		</g>
	</g>
	<g>
		<g>
			<path class="st5" d="M58.7,24.9l-1,2c-1.1-0.6-2.4-1-3.2-1c-0.7,0-1.1,0.2-1.1,0.7c0,1.7,5.3,0.7,5.3,4.3c0,2-1.8,3.1-4,3.1
				c-1.7,0-3.4-0.6-4.6-1.6l1-2c1,0.9,2.6,1.5,3.6,1.5c0.8,0,1.3-0.3,1.3-0.9c0-1.8-5.3-0.7-5.3-4.2c0-1.8,1.6-3,4-3
				C56.2,23.8,57.6,24.2,58.7,24.9z"/>
			<path class="st5" d="M67.8,30c0,2.4-1.7,3.9-4.2,3.9c-2.5,0-4.2-1.6-4.2-3.9c0-2.4,1.7-3.9,4.2-3.9C66.1,26.1,67.8,27.6,67.8,30z
				 M61.9,30c0,1.2,0.7,2,1.7,2c1,0,1.7-0.8,1.7-2c0-1.2-0.7-2-1.7-2C62.6,28,61.9,28.9,61.9,30z"/>
			<path class="st5" d="M69.2,33.9V23.3h2.5v10.6H69.2z"/>
			<path class="st5" d="M76.3,24c0,0.8-0.5,1.3-1.3,1.3c-0.8,0-1.3-0.5-1.3-1.3c0-0.8,0.5-1.3,1.3-1.3C75.7,22.7,76.3,23.2,76.3,24z
				 M73.7,33.9v-7.7h2.5v7.7H73.7z"/>
			<path class="st5" d="M85.9,33.9h-2.5v-1c-0.5,0.7-1.3,1.1-2.3,1.1c-2.2,0-3.6-1.6-3.6-4c0-2.4,1.4-3.9,3.5-3.9
				c1,0,1.8,0.4,2.4,1.1v-3.9h2.5V33.9z M83.4,30c0-1.2-0.7-2-1.7-2c-1,0-1.7,0.8-1.7,2c0,1.2,0.7,2,1.7,2
				C82.7,32.1,83.4,31.2,83.4,30z"/>
			<path class="st5" d="M94.7,28.8v5h-2.4V33c-0.5,0.7-1.3,1-2.4,1c-1.6,0-2.6-1-2.6-2.4c0-1.5,1-2.3,3-2.3h2v-0.1
				c0-0.8-0.5-1.2-1.5-1.2c-0.6,0-1.5,0.2-2.3,0.6l-0.7-1.6c1.2-0.6,2.3-0.9,3.6-0.9C93.5,26.1,94.7,27.1,94.7,28.8z M92.3,31.3
				v-0.7h-1.6c-0.7,0-1.1,0.3-1.1,0.8c0,0.6,0.4,0.9,1.1,0.9C91.5,32.3,92.2,31.9,92.3,31.3z"/>
			<path class="st5" d="M99,27.5c0.5-0.9,1.4-1.4,2.5-1.4v2.2c-1.4-0.1-2.4,0.5-2.5,1.6v3.9h-2.5v-7.7H99V27.5z"/>
			<path class="st5" d="M105.1,24c0,0.8-0.5,1.3-1.3,1.3c-0.8,0-1.3-0.5-1.3-1.3c0-0.8,0.5-1.3,1.3-1.3
				C104.5,22.7,105.1,23.2,105.1,24z M102.5,33.9v-7.7h2.5v7.7H102.5z"/>
			<path class="st5" d="M114.2,30.7h-5.4c0.2,0.9,0.9,1.4,1.8,1.4c0.7,0,1.3-0.3,1.8-0.8l1.3,1.3c-0.8,0.9-1.9,1.4-3.3,1.4
				c-2.5,0-4.1-1.6-4.1-3.9c0-2.4,1.6-3.9,4-3.9C113,26.1,114.4,27.9,114.2,30.7z M111.8,29.4c0-0.9-0.6-1.6-1.5-1.6
				c-0.9,0-1.4,0.6-1.6,1.6H111.8z"/>
			<path class="st5" d="M123.3,33.9h-2.5v-1c-0.5,0.7-1.3,1.1-2.3,1.1c-2.2,0-3.6-1.6-3.6-4c0-2.4,1.4-3.9,3.5-3.9
				c1,0,1.8,0.4,2.4,1.1v-3.9h2.5V33.9z M120.8,30c0-1.2-0.7-2-1.7-2s-1.7,0.8-1.7,2c0,1.2,0.7,2,1.7,2S120.8,31.2,120.8,30z"/>
			<path class="st5" d="M132.1,28.8v5h-2.4V33c-0.5,0.7-1.3,1-2.4,1c-1.6,0-2.6-1-2.6-2.4c0-1.5,1-2.3,3-2.3h2v-0.1
				c0-0.8-0.5-1.2-1.5-1.2c-0.6,0-1.5,0.2-2.3,0.6l-0.7-1.6c1.2-0.6,2.3-0.9,3.6-0.9C130.9,26.1,132.1,27.1,132.1,28.8z M129.7,31.3
				v-0.7h-1.6c-0.7,0-1.1,0.3-1.1,0.8c0,0.6,0.4,0.9,1.1,0.9C128.9,32.3,129.5,31.9,129.7,31.3z"/>
			<path class="st5" d="M141.7,33.9h-2.5v-1c-0.5,0.7-1.3,1.1-2.3,1.1c-2.2,0-3.6-1.6-3.6-4c0-2.4,1.4-3.9,3.5-3.9
				c1,0,1.8,0.4,2.4,1.1v-3.9h2.5V33.9z M139.2,30c0-1.2-0.7-2-1.7-2c-1,0-1.7,0.8-1.7,2c0,1.2,0.7,2,1.7,2
				C138.6,32.1,139.2,31.2,139.2,30z"/>
			<path class="st5" d="M151,30.7h-5.4c0.2,0.9,0.9,1.4,1.8,1.4c0.7,0,1.3-0.3,1.8-0.8l1.3,1.3c-0.8,0.9-1.9,1.4-3.3,1.4
				c-2.5,0-4.1-1.6-4.1-3.9c0-2.4,1.6-3.9,4-3.9C149.8,26.1,151.2,27.9,151,30.7z M148.6,29.4c0-0.9-0.6-1.6-1.5-1.6
				c-0.9,0-1.4,0.6-1.6,1.6H148.6z"/>
		</g>
	</g>
</g>
</svg>
